<svg version="1.1" id="Layer_1" xmlns="http://www.w3.org/2000/svg" xmlns:xlink="http://www.w3.org/1999/xlink" x="0px" y="0px"
	 width="100%" viewBox="0 0 512 512" enable-background="new 0 0 512 512" xml:space="preserve">
<path fill="#000000" opacity="1.000000" stroke="none" 
	d="
M300.000000,513.000000 
	C200.024277,513.000000 100.548546,513.000000 1.036411,513.000000 
	C1.036411,342.399261 1.036411,171.798492 1.036411,1.098866 
	C171.559067,1.098866 342.118225,1.098866 512.838684,1.098866 
	C512.838684,171.666550 512.838684,342.333252 512.838684,513.000000 
	C442.131805,513.000000 371.315887,513.000000 300.000000,513.000000 
M331.976440,414.865692 
	C332.305878,426.416412 338.853027,436.132477 350.189941,436.797333 
	C369.855957,437.950653 389.914429,438.924072 409.327820,436.349609 
	C438.578613,432.470581 462.733887,417.665131 481.314209,394.257263 
	C502.557922,367.493927 509.820312,337.003754 504.597382,303.728485 
	C500.126770,275.246124 485.316956,252.233688 463.246826,233.965439 
	C460.106689,231.366226 459.902649,229.617462 461.237732,226.146118 
	C470.828583,201.209167 474.721802,175.549103 471.095673,148.845642 
	C467.153442,119.814796 454.765656,94.865265 434.980957,73.614380 
	C421.082062,58.685444 404.619781,47.101620 385.825531,38.912899 
	C358.985870,27.218786 331.288666,22.518658 302.046173,26.847378 
	C275.307312,30.805494 252.067169,42.012215 232.028976,59.642456 
	C214.374756,75.175201 201.209793,94.353806 191.854645,115.869675 
	C189.509811,121.262573 186.549225,121.495056 182.123596,120.855324 
	C170.196747,119.131256 158.277939,119.330231 146.567383,122.106575 
	C113.830322,129.867889 89.693016,148.808746 74.654694,178.917969 
	C67.924728,192.392456 64.827858,206.932358 63.876511,221.970688 
	C63.755936,223.876617 62.430614,226.325821 60.883255,227.421631 
	C50.740543,234.604446 41.061592,242.092316 32.699970,251.535446 
	C10.815827,276.250092 6.584000,305.903229 9.437774,336.757782 
	C12.020425,364.680939 24.927771,388.298126 45.846825,407.437683 
	C67.318718,427.083038 92.504730,437.496216 121.449402,437.884735 
	C156.769348,438.358887 192.100815,438.068054 227.426422,437.909668 
	C231.770462,437.890167 233.305435,439.047363 233.094498,443.514282 
	C232.749084,450.829803 232.983047,458.173676 233.008041,465.505493 
	C233.057007,479.868713 243.088440,489.624695 257.626709,489.476471 
	C271.871948,489.331238 281.958252,479.443268 281.991760,465.541473 
	C282.033112,448.378571 282.039459,431.215607 282.985535,414.006805 
	C299.299957,414.012848 315.614380,414.018890 331.976440,414.865692 
z"/>
<path fill="#4D4D4D" opacity="1.000000" stroke="none" 
	d="
M282.060944,414.052673 
	C282.039459,431.215607 282.033112,448.378571 281.991760,465.541473 
	C281.958252,479.443268 271.871948,489.331238 257.626709,489.476471 
	C243.088440,489.624695 233.057007,479.868713 233.008041,465.505493 
	C232.983047,458.173676 232.749084,450.829803 233.094498,443.514282 
	C233.305435,439.047363 231.770462,437.890167 227.426422,437.909668 
	C192.100815,438.068054 156.769348,438.358887 121.449402,437.884735 
	C92.504730,437.496216 67.318718,427.083038 45.846825,407.437683 
	C24.927771,388.298126 12.020425,364.680939 9.437774,336.757782 
	C6.584000,305.903229 10.815827,276.250092 32.699970,251.535446 
	C41.061592,242.092316 50.740543,234.604446 60.883255,227.421631 
	C62.430614,226.325821 63.755936,223.876617 63.876511,221.970688 
	C64.827858,206.932358 67.924728,192.392456 74.654694,178.917969 
	C89.693016,148.808746 113.830322,129.867889 146.567383,122.106575 
	C158.277939,119.330231 170.196747,119.131256 182.123596,120.855324 
	C186.549225,121.495056 189.509811,121.262573 191.854645,115.869675 
	C201.209793,94.353806 214.374756,75.175201 232.028976,59.642456 
	C252.067169,42.012215 275.307312,30.805494 302.046173,26.847378 
	C331.288666,22.518658 358.985870,27.218786 385.825531,38.912899 
	C404.619781,47.101620 421.082062,58.685444 434.980957,73.614380 
	C454.765656,94.865265 467.153442,119.814796 471.095673,148.845642 
	C474.721802,175.549103 470.828583,201.209167 461.237732,226.146118 
	C459.902649,229.617462 460.106689,231.366226 463.246826,233.965439 
	C485.316956,252.233688 500.126770,275.246124 504.597382,303.728485 
	C509.820312,337.003754 502.557922,367.493927 481.314209,394.257263 
	C462.733887,417.665131 438.578613,432.470581 409.327820,436.349609 
	C389.914429,438.924072 369.855957,437.950653 350.189941,436.797333 
	C338.853027,436.132477 332.305878,426.416412 332.062836,414.060120 
	C335.212189,395.864014 342.910095,389.482117 360.785522,389.427704 
	C372.274963,389.392700 383.782990,389.678772 395.249817,389.132141 
	C424.273254,387.748566 448.233917,368.024353 455.567291,339.966858 
	C462.923492,311.822052 451.460419,282.271667 426.951477,267.033630 
	C423.707520,265.016754 419.657043,264.069366 415.846802,263.235992 
	C406.441895,261.178864 396.802063,260.050964 387.540100,257.514465 
	C366.209137,251.672729 347.501343,240.613312 330.017761,226.757751 
	C323.241058,219.883011 316.085175,213.770508 310.126007,206.655670 
	C285.177429,176.868729 272.878448,142.818008 277.098938,103.636436 
	C277.839905,96.757423 279.441284,89.971077 280.735657,82.629524 
	C267.584045,89.130753 257.077362,98.093918 248.525284,109.424522 
	C238.331131,122.930717 232.067734,138.222992 227.920059,154.509979 
	C225.054428,165.762695 216.709045,173.145523 205.643219,173.316589 
	C201.177734,173.385635 196.435730,171.982697 192.237213,170.242157 
	C165.123413,159.001938 136.494308,168.281021 122.694519,193.077026 
	C115.522926,205.963226 113.117027,220.019684 113.382172,234.499817 
	C113.652054,249.238602 109.805534,255.968811 96.204094,262.187469 
	C63.711624,277.043243 48.694981,314.019501 61.627579,347.326904 
	C71.906036,373.798645 95.495712,389.272217 126.333992,389.402527 
	C160.332581,389.546204 194.332245,389.439026 228.331436,389.425751 
	C229.788315,389.425201 231.245148,389.270721 232.959015,389.173309 
	C232.959015,366.709290 232.959015,344.513519 232.959015,321.450104 
	C228.179214,325.074799 224.021271,328.287445 219.799698,331.414154 
	C214.537186,335.311890 208.731659,337.727661 202.077255,336.474335 
	C191.144165,334.415131 184.304199,327.615814 181.620911,317.020752 
	C179.085678,307.010223 183.023056,299.119812 190.984100,292.993439 
	C207.354507,280.395660 223.772324,267.858887 240.077469,255.177231 
	C251.552765,246.252090 262.176605,245.931244 273.856720,254.520966 
	C279.081055,258.363007 284.247284,262.284058 289.647400,266.453979 
	C301.181793,275.495636 312.729553,283.987823 323.714233,293.154755 
	C327.502686,296.316284 330.887390,300.760284 332.704041,305.317108 
	C336.306915,314.354553 332.015594,325.351379 323.592316,331.806000 
	C315.376648,338.101501 305.400146,338.485229 296.640564,332.531281 
	C291.761566,329.215057 287.160400,325.490082 281.873779,321.529572 
	C281.680023,323.650574 281.461182,324.935059 281.460297,326.219666 
	C281.440796,354.028778 281.436249,381.837921 281.471924,409.647003 
	C281.473816,411.115784 281.855865,412.584137 282.060944,414.052673 
M420.941833,197.346039 
	C424.622803,184.911118 426.106842,172.209702 424.668701,159.324966 
	C419.151306,109.893074 376.460815,80.345200 338.462067,74.750946 
	C337.174133,74.561333 334.878815,75.695236 334.327209,76.831024 
	C320.763611,104.759132 318.642548,132.877975 335.177521,160.283615 
	C352.717804,189.355453 380.465790,204.417206 412.011749,213.611115 
	C412.990570,213.896378 415.179382,212.684738 415.633514,211.654816 
	C417.574890,207.252182 419.076477,202.655655 420.941833,197.346039 
z"/>
<path fill="#FEC761" opacity="1.000000" stroke="none" 
	d="
M282.523254,414.029724 
	C281.855865,412.584137 281.473816,411.115784 281.471924,409.647003 
	C281.436249,381.837921 281.440796,354.028778 281.460297,326.219666 
	C281.461182,324.935059 281.680023,323.650574 281.873779,321.529572 
	C287.160400,325.490082 291.761566,329.215057 296.640564,332.531281 
	C305.400146,338.485229 315.376648,338.101501 323.592316,331.806000 
	C332.015594,325.351379 336.306915,314.354553 332.704041,305.317108 
	C330.887390,300.760284 327.502686,296.316284 323.714233,293.154755 
	C312.729553,283.987823 301.181793,275.495636 289.853760,266.148132 
	C300.710052,250.013214 314.519257,237.561417 330.189026,227.059006 
	C347.501343,240.613312 366.209137,251.672729 387.540100,257.514465 
	C396.802063,260.050964 406.441895,261.178864 415.846802,263.235992 
	C419.657043,264.069366 423.707520,265.016754 426.951477,267.033630 
	C451.460419,282.271667 462.923492,311.822052 455.567291,339.966858 
	C448.233917,368.024353 424.273254,387.748566 395.249817,389.132141 
	C383.782990,389.678772 372.274963,389.392700 360.785522,389.427704 
	C342.910095,389.482117 335.212189,395.864014 332.039001,413.639740 
	C315.614380,414.018890 299.299957,414.012848 282.523254,414.029724 
z"/>
<path fill="#E9EAFE" opacity="1.000000" stroke="none" 
	d="
M330.017761,226.757751 
	C314.519257,237.561417 300.710052,250.013214 289.646179,265.863403 
	C284.247284,262.284058 279.081055,258.363007 273.856720,254.520966 
	C262.176605,245.931244 251.552765,246.252090 240.077469,255.177231 
	C223.772324,267.858887 207.354507,280.395660 190.984100,292.993439 
	C183.023056,299.119812 179.085678,307.010223 181.620911,317.020752 
	C184.304199,327.615814 191.144165,334.415131 202.077255,336.474335 
	C208.731659,337.727661 214.537186,335.311890 219.799698,331.414154 
	C224.021271,328.287445 228.179214,325.074799 232.959015,321.450104 
	C232.959015,344.513519 232.959015,366.709290 232.959015,389.173309 
	C231.245148,389.270721 229.788315,389.425201 228.331436,389.425751 
	C194.332245,389.439026 160.332581,389.546204 126.333992,389.402527 
	C95.495712,389.272217 71.906036,373.798645 61.627579,347.326904 
	C48.694981,314.019501 63.711624,277.043243 96.204094,262.187469 
	C109.805534,255.968811 113.652054,249.238602 113.382172,234.499817 
	C113.117027,220.019684 115.522926,205.963226 122.694519,193.077026 
	C136.494308,168.281021 165.123413,159.001938 192.237213,170.242157 
	C196.435730,171.982697 201.177734,173.385635 205.643219,173.316589 
	C216.709045,173.145523 225.054428,165.762695 227.920059,154.509979 
	C232.067734,138.222992 238.331131,122.930717 248.525284,109.424522 
	C257.077362,98.093918 267.584045,89.130753 280.735657,82.629524 
	C279.441284,89.971077 277.839905,96.757423 277.098938,103.636436 
	C272.878448,142.818008 285.177429,176.868729 310.126007,206.655670 
	C316.085175,213.770508 323.241058,219.883011 330.017761,226.757751 
z"/>
<path fill="#55A1FE" opacity="1.000000" stroke="none" 
	d="
M420.840149,197.737946 
	C419.076477,202.655655 417.574890,207.252182 415.633514,211.654816 
	C415.179382,212.684738 412.990570,213.896378 412.011749,213.611115 
	C380.465790,204.417206 352.717804,189.355453 335.177521,160.283615 
	C318.642548,132.877975 320.763611,104.759132 334.327209,76.831024 
	C334.878815,75.695236 337.174133,74.561333 338.462067,74.750946 
	C376.460815,80.345200 419.151306,109.893074 424.668701,159.324966 
	C426.106842,172.209702 424.622803,184.911118 420.840149,197.737946 
z"/>
</svg>