<svg version="1.1" id="Layer_1" xmlns="http://www.w3.org/2000/svg" xmlns:xlink="http://www.w3.org/1999/xlink" x="0px" y="0px"
	 width="100%" viewBox="0 0 512 512" enable-background="new 0 0 512 512" xml:space="preserve">
<path fill="#8583e2" opacity="1.000000" stroke="none" 
	d="
M352.000000,513.000000 
	C234.695175,513.000000 117.890343,513.000000 1.042754,513.000000 
	C1.042754,342.403473 1.042754,171.806946 1.042754,1.105209 
	C171.554840,1.105209 342.109741,1.105209 512.832336,1.105209 
	C512.832336,171.666534 512.832336,342.333252 512.832336,513.000000 
	C459.473541,513.000000 405.986786,513.000000 352.000000,513.000000 
M449.983185,197.057343 
	C449.987579,192.628891 450.115326,188.196060 449.957794,183.773376 
	C449.828339,180.139175 449.360016,176.517044 449.010101,172.018784 
	C448.680511,169.438782 448.412811,166.849091 448.011566,164.280289 
	C444.638733,142.686432 434.842316,124.068695 419.264252,109.215553 
	C410.213318,100.585846 399.502502,93.041351 388.319031,87.446136 
	C367.670624,77.115524 345.301208,72.789284 321.176910,74.018425 
	C257.953766,79.728203 219.346970,114.235832 203.299622,175.194534 
	C186.284637,169.566223 169.172470,168.076401 151.863983,172.044907 
	C127.504196,177.630157 109.402611,191.398315 97.983025,213.847855 
	C90.822250,227.925079 88.007492,242.807312 89.073822,258.438934 
	C89.379807,262.924377 88.079979,265.205688 83.752060,267.209259 
	C70.493690,273.347198 59.137276,282.287781 50.506359,294.113831 
	C35.124569,315.189850 29.954979,338.882141 34.010544,364.581177 
	C37.567581,387.121246 48.381611,405.409790 66.181129,419.767853 
	C83.063736,433.386261 102.248856,439.997772 123.830109,439.999390 
	C158.662521,440.001953 193.494949,440.000061 228.327362,440.000061 
	C230.104660,440.000061 231.881958,440.000061 233.784912,440.000061 
	C233.784912,405.062225 233.784912,370.641235 233.784912,336.171967 
	C232.918640,336.171967 232.205902,335.995331 231.626129,336.198364 
	C222.337234,339.451508 213.013870,342.617096 203.809738,346.097168 
	C198.691040,348.032562 194.684891,346.334534 190.774521,343.289246 
	C182.371292,336.745087 183.306641,324.090637 190.350464,317.183167 
	C196.854507,310.805054 203.613312,304.686646 210.113510,298.304749 
	C219.389084,289.197998 228.476242,279.899200 237.765900,270.807068 
	C240.324066,268.303314 243.069824,265.807800 246.155258,264.060181 
	C255.810440,258.591339 264.188263,259.355896 274.780243,269.411041 
	C291.537170,285.318634 307.987335,301.556854 324.287140,317.934021 
	C329.349701,323.020599 330.748535,329.776581 328.041718,336.552124 
	C324.251221,346.040222 316.084747,348.888885 306.469727,345.126831 
	C297.937012,341.788208 289.221680,338.916321 280.341919,335.751068 
	C280.341919,370.749146 280.341919,405.283539 280.341919,440.000061 
	C317.669434,440.000061 354.656097,440.091431 391.641418,439.910248 
	C397.814667,439.880005 404.097534,439.200775 410.131073,437.899811 
	C430.047668,433.605377 447.036072,423.766022 460.095032,408.190430 
	C478.362640,386.402344 484.273651,360.959442 479.997406,333.022522 
	C477.203278,314.768311 469.180786,298.808929 456.155334,286.083405 
	C448.135742,278.248505 438.023987,272.555115 429.014893,265.190399 
	C431.260651,260.358521 433.922028,255.671448 435.666229,250.664856 
	C439.373749,240.022766 442.898712,229.296494 445.921570,218.444046 
	C447.778473,211.777359 448.568146,204.813385 449.983185,197.057343 
z"/>
<path fill="#8583e2" opacity="1.000000" stroke="none" 
	d="
M428.851593,265.900177 
	C438.023987,272.555115 448.135742,278.248505 456.155334,286.083405 
	C469.180786,298.808929 477.203278,314.768311 479.997406,333.022522 
	C484.273651,360.959442 478.362640,386.402344 460.095032,408.190430 
	C447.036072,423.766022 430.047668,433.605377 410.131073,437.899811 
	C404.097534,439.200775 397.814667,439.880005 391.641418,439.910248 
	C354.656097,440.091431 317.669434,440.000061 280.341919,440.000061 
	C280.341919,405.283539 280.341919,370.749146 280.341919,335.751068 
	C289.221680,338.916321 297.937012,341.788208 306.469727,345.126831 
	C316.084747,348.888885 324.251221,346.040222 328.041718,336.552124 
	C330.748535,329.776581 329.349701,323.020599 324.287140,317.934021 
	C307.987335,301.556854 291.537170,285.318634 274.780243,269.411041 
	C264.188263,259.355896 255.810440,258.591339 246.155258,264.060181 
	C243.069824,265.807800 240.324066,268.303314 237.765900,270.807068 
	C228.476242,279.899200 219.389084,289.197998 210.113510,298.304749 
	C203.613312,304.686646 196.854507,310.805054 190.350464,317.183167 
	C183.306641,324.090637 182.371292,336.745087 190.774521,343.289246 
	C194.684891,346.334534 198.691040,348.032562 203.809738,346.097168 
	C213.013870,342.617096 222.337234,339.451508 231.626129,336.198364 
	C232.205902,335.995331 232.918640,336.171967 233.784912,336.171967 
	C233.784912,370.641235 233.784912,405.062225 233.784912,440.000061 
	C231.881958,440.000061 230.104660,440.000061 228.327362,440.000061 
	C193.494949,440.000061 158.662521,440.001953 123.830109,439.999390 
	C102.248856,439.997772 83.063736,433.386261 66.181129,419.767853 
	C48.381611,405.409790 37.567581,387.121246 34.010544,364.581177 
	C29.954979,338.882141 35.124569,315.189850 50.506359,294.113831 
	C59.137276,282.287781 70.493690,273.347198 83.752060,267.209259 
	C88.079979,265.205688 89.379807,262.924377 89.073822,258.438934 
	C88.007492,242.807312 90.822250,227.925079 97.983025,213.847855 
	C109.402611,191.398315 127.504196,177.630157 151.863983,172.044907 
	C169.172470,168.076401 186.284637,169.566223 203.299622,175.194534 
	C219.346970,114.235832 257.953766,79.728203 321.451294,74.387314 
	C318.134277,81.516449 314.214050,88.125031 311.013123,95.065338 
	C301.345886,116.026085 296.602325,137.914169 300.311951,161.030579 
	C304.158875,185.002304 315.579407,205.253952 332.237885,222.532135 
	C345.768555,236.566162 361.679443,247.470428 379.600891,255.217163 
	C395.282715,261.995789 411.398895,267.120911 428.851593,265.900177 
z"/>
<path fill="#8583e2" opacity="1.000000" stroke="none" 
	d="
M428.933228,265.545288 
	C411.398895,267.120911 395.282715,261.995789 379.600891,255.217163 
	C361.679443,247.470428 345.768555,236.566162 332.237885,222.532135 
	C315.579407,205.253952 304.158875,185.002304 300.311951,161.030579 
	C296.602325,137.914169 301.345886,116.026085 311.013123,95.065338 
	C314.214050,88.125031 318.134277,81.516449 321.885956,74.455139 
	C345.301208,72.789284 367.670624,77.115524 388.319031,87.446136 
	C399.502502,93.041351 410.213318,100.585846 419.264252,109.215553 
	C434.842316,124.068695 444.638733,142.686432 448.011566,164.280289 
	C448.412811,166.849091 448.680511,169.438782 449.014038,172.929611 
	C449.291016,181.887924 449.564026,189.935425 449.837036,197.982910 
	C448.568146,204.813385 447.778473,211.777359 445.921570,218.444046 
	C442.898712,229.296494 439.373749,240.022766 435.666229,250.664856 
	C433.922028,255.671448 431.260651,260.358521 428.933228,265.545288 
z"/>
<path fill="#8583e2" opacity="1.000000" stroke="none" 
	d="
M449.910095,197.520126 
	C449.564026,189.935425 449.291016,181.887924 449.029907,173.365005 
	C449.360016,176.517044 449.828339,180.139175 449.957794,183.773376 
	C450.115326,188.196060 449.987579,192.628891 449.910095,197.520126 
z"/>
</svg>