<svg height="512" viewBox="0 0 64 64" width="512" xmlns="http://www.w3.org/2000/svg"><g id="flat"><path d="m52 7a2.812 2.812 0 0 0 -3-3 3.3 3.3 0 0 0 -3 3l-2 12-1 1h-22l-1-1-2-12a3.3 3.3 0 0 0 -3-3 2.812 2.812 0 0 0 -3 3l1 18 10 4a54.615 54.615 0 0 0 -3 32h9l-1-7 4-3 4 3-1 7h9a54.615 54.615 0 0 0 -3-32l10-4z" fill="#ad6327"/><path d="m41 17-5 6h-8l-5-6 2-7 4-3h6l4 3z" fill="#d3843d"/><path d="m29 7-1.1-2.21a3.309 3.309 0 0 0 -5.112-1.033 3.309 3.309 0 0 0 .673 5.471l1.539.772z" fill="#ad6327"/><path d="m35 7 1.1-2.21a3.309 3.309 0 0 1 5.112-1.033 3.309 3.309 0 0 1 -.673 5.471l-1.539.772z" fill="#ad6327"/><g fill="#301a12"><path d="m35.758 20.97-3.758-.939-3.758.939-.484-1.94 4.242-1.061 4.242 1.061z"/><path d="m28 12h2v2h-2z"/><path d="m34 12h2v2h-2z"/></g><path d="m34 16c0 1.105-.9 3-2 3s-2-1.895-2-3 .895-1 2-1 2-.1 2 1z" fill="#66342e"/><path d="m36 25h-8a1 1 0 0 1 -.769-.36l-2.484-2.981a1 1 0 0 1 .128-1.409 1 1 0 0 1 1.409.128l2.185 2.622h7.062l2.185-2.622a1 1 0 0 1 1.409-.128 1 1 0 0 1 .128 1.409l-2.484 2.981a1 1 0 0 1 -.769.36z" fill="#66342e"/><path d="m38 44c0-5.523-2.686-11-6-11s-6 5.477-6 11c0 4.39 1.7 7.11 4.06 8.455l1.94-1.455 1.94 1.456c2.36-1.344 4.06-4.065 4.06-8.456z" fill="#f9bb4b"/></g></svg>