<svg id="Layer_2_00000126316764467231350420000010722580117229203610_" enable-background="new 0 0 512 512" viewBox="0 0 512 512" xmlns="http://www.w3.org/2000/svg"><g id="Icon"><g id="_70"><g id="Folder"><path d="m233.1 93-43.9-32.7c-10.4-7.7-22.9-11.8-35.8-11.8h-123.4c-16.6 0-30 13.4-30 30v355c0 16.6 13.4 30 30 30h452c16.6 0 30-13.4 30-30v-298.6c0-16.6-13.4-30-30-30h-213.1c-12.9-.1-25.4-4.2-35.8-11.9z" fill="#f6c012"/><path d="m30 153.5h452c16.6 0 30 13.4 30 30v250c0 16.6-13.4 30-30 30h-452c-16.6 0-30-13.4-30-30v-250c0-16.6 13.4-30 30-30z" fill="#fbd87c"/></g><circle cx="256" cy="308.5" fill="#ff9e1f" r="125"/><path d="m297 379.8c5.9-5.9 5.9-15.4 0-21.2l-50.1-50.1 50.1-50.1c5.9-5.9 5.9-15.4 0-21.2-5.9-5.9-15.4-5.9-21.2 0l-60.8 60.7c-5.9 5.9-5.9 15.4 0 21.2l60.7 60.7c5.9 5.9 15.4 5.9 21.3 0z" fill="#ffebbd"/></g></g></svg>