<svg id="Layer_2_00000031178905257577726450000015745762408297657749_" enable-background="new 0 0 512 512" viewBox="0 0 512 512" xmlns="http://www.w3.org/2000/svg"><g id="Icon"><g id="_08"><g id="Folder"><path d="m273.1 93-43.9-32.7c-10.4-7.7-22.9-11.8-35.8-11.8h-123.4c-16.6 0-30 13.4-30 30v355c0 16.6 13.4 30 30 30h372c16.6 0 30-13.4 30-30v-298.6c0-16.6-13.4-30-30-30h-133.1c-12.9-.1-25.4-4.2-35.8-11.9z" fill="#f6c012"/><g><path d="m116 134.2h300c8.3 0 15 6.7 15 15v200c0 8.3-6.7 15-15 15h-300c-8.3 0-15-6.7-15-15v-200c0-8.3 6.7-15 15-15z" fill="#ffeac5"/><path d="m96 154.2h300c8.3 0 15 6.7 15 15v200c0 8.3-6.7 15-15 15h-300c-8.3 0-15-6.7-15-15v-200c0-8.3 6.7-15 15-15z" fill="#fff7e6"/></g><path d="m4.9 217.7 31.4 220c2.1 14.8 14.8 25.8 29.7 25.8h380c14.9 0 27.6-11 29.7-25.8l31.4-220c2.6-18.1-11.4-34.2-29.7-34.2h-442.8c-18.3 0-32.3 16.2-29.7 34.2z" fill="#fbd87c"/></g></g></g></svg>