<svg height="512" viewBox="0 0 64 64" width="512" xmlns="http://www.w3.org/2000/svg"><g id="flat"><path d="m20 32a9.659 9.659 0 0 1 -8 0l4-4a14.935 14.935 0 0 1 -3-9 16 16 0 0 1 32 0 16.12 16.12 0 0 1 -3 9l4 4a9.659 9.659 0 0 1 -8 0z" fill="#394d5c"/><path d="m17 38v8h8l5 5v10h11v-23z" fill="#195c85"/><path d="m17 38h-1a4.188 4.188 0 0 0 -4 3l-3 11v1a4 4 0 0 0 4 4h4z" fill="#2d75bb"/><path d="m26 10c-1 4-6 5-6 5v19h18v-19s-10 2-12-5z" fill="#ffd782"/><path d="m23 18h2v2h-2z" fill="#394d5c"/><path d="m33 18h2v2h-2z" fill="#394d5c"/><path d="m20 26a4 4 0 0 1 0-8z" fill="#f9bb4b"/><path d="m38 18a4 4 0 0 1 0 8z" fill="#f9bb4b"/><path d="m28 20h2v4h-2z" fill="#394d5c"/><path d="m29 32a4 4 0 0 1 -4-4v-1h8v1a4 4 0 0 1 -4 4z" fill="#dd3e46"/><path d="m29 41-8 1v-4h8z" fill="#2d75bb"/><path d="m29 41 8 1v-4h-8z" fill="#388ace"/><path d="m48 26v12h-7v8h11a4 4 0 0 0 4-4v-16z" fill="#2d75bb"/><path d="m52 18a4 4 0 0 1 4 4v4a0 0 0 0 1 0 0h-8a0 0 0 0 1 0 0v-4a4 4 0 0 1 4-4z" fill="#ffd782"/><path d="m48 26h8v4h-8z" fill="#195c85"/><path d="m28 44h2v2h-2z" fill="#f4f4e6"/><path d="m30 61h-15v-15h10l5 5z" fill="#f4f4e6"/><path d="m15 51h4a2 2 0 0 1 2 2v2a2 2 0 0 1 -2 2h-4a0 0 0 0 1 0 0v-6a0 0 0 0 1 0 0z" fill="#ffd782"/><path d="m30 51h-5v-5z" fill="#98a1a1"/></g></svg>