<svg version="1.2" xmlns="http://www.w3.org/2000/svg" viewBox="0 0 856 695" width="856" height="695">
	<title>6051671-ai</title>
	<style>
		tspan { white-space:pre } 
		.s0 { fill: #112d4e } 
		.s1 { fill: #3f72af } 
		.s2 { fill: #376399 } 
	</style>
	<g id="OBJECTS">
		<g id="&lt;Group&gt;">
			<g id="&lt;Group&gt;">
				<g id="&lt;Group&gt;">
					<path id="&lt;Path&gt;" class="s0" d="m370 76.4h447.4l-123.2 345.5c-12.1 34-44.3 56.7-80.3 56.7h-326.5c-58.9 0-100.1-58.4-80.3-113.9l82.6-231.7c12.1-33.9 44.2-56.6 80.3-56.6z"/>
					<path id="&lt;Path&gt;" class="s1" d="m471 622.1h-447.4l123.2-345.5c12.1-34 44.2-56.7 80.3-56.7h326.5c58.9 0 100.1 58.4 80.3 113.9l-82.6 231.7c-12.1 33.9-44.3 56.6-80.3 56.6z"/>
					<path id="&lt;Path&gt;" class="s2" d="m553.6 219.9h-294.9l-51.6 144.8c-19.8 55.5 21.4 113.9 80.3 113.9h294.9l51.6-144.8c19.8-55.5-21.4-113.9-80.3-113.9z"/>
				</g>
			</g>
		</g>
	</g>
</svg>