<svg version="1.2" xmlns="http://www.w3.org/2000/svg" viewBox="0 0 1080 743" width="1080" height="743">
	<style>
		.s0 { fill: #112d4e } 
		.s1 { fill: #3f72af } 
		.s2 { fill: #376399 } 
	</style>
	<path id="&lt;Path&gt;" class="s0" d="m471.3 0h608.7l-167.6 470.1c-16.5 46.2-60.3 77.1-109.3 77.1h-444.2c-80.1 0-136.2-79.4-109.2-155l112.3-315.2c16.5-46.1 60.2-77 109.3-77z"/>
	<path id="&lt;Path&gt;" class="s1" d="m608.7 742.4h-608.7l167.6-470c16.5-46.3 60.2-77.2 109.3-77.2h444.2c80.1 0 136.2 79.5 109.2 155l-112.3 315.2c-16.5 46.2-60.3 77-109.3 77z"/>
	<path id="&lt;Path&gt;" class="s2" d="m721.1 195.2h-401.2l-70.2 197c-27 75.6 29.1 155 109.2 155h401.2l70.2-197c27-75.5-29.1-155-109.2-155z"/>
</svg>